<svg xmlns="http://www.w3.org/2000/svg" xmlns:xlink="http://www.w3.org/1999/xlink" viewBox="0 0 474.09 363.49"><defs><style>.cls-1{fill:#2dd4bf;}.cls-2{clip-path:url(#clip-path);}.cls-3{clip-path:url(#clip-path-2);}.cls-4{clip-path:url(#clip-path-3);}.cls-5{clip-path:url(#clip-path-4);}</style><clipPath id="clip-path" transform="translate(-18.47 -78.85)"><rect class="cls-1" x="34" y="95" width="115" height="115" rx="20" transform="translate(-81.43 111) rotate(-45.54)"/></clipPath><clipPath id="clip-path-2" transform="translate(-18.47 -78.85)"><rect class="cls-1" x="34.88" y="311.81" width="115" height="115" rx="20" transform="translate(-234.32 173.88) rotate(-45.07)"/></clipPath><clipPath id="clip-path-3" transform="translate(-18.47 -78.85)"><rect class="cls-1" x="144.1" y="203.18" width="115" height="115" rx="20" transform="translate(-125.33 219.3) rotate(-45.07)"/></clipPath><clipPath id="clip-path-4" transform="translate(-18.47 -78.85)"><rect class="cls-1" x="362.03" y="203.37" width="115" height="115" rx="20" transform="translate(-61.45 373.63) rotate(-45.07)"/></clipPath></defs><title>logo_dark_rounded</title><rect class="cls-1" x="34" y="95" width="115" height="115" rx="20" transform="translate(-99.9 32.15) rotate(-45.54)"/><g class="cls-2"><rect class="cls-1" x="34" y="95" width="115" height="115" rx="20" transform="translate(-99.9 32.15) rotate(-45.54)"/></g><rect class="cls-1" x="139" y="175" width="16" height="62" transform="translate(-121.46 87.8) rotate(-45.54)"/><path class="cls-1" d="M179.78,200.55l-15.3,20.81-11.35-20.55A19.91,19.91,0,0,0,179.78,200.55Z" transform="translate(-18.47 -78.85)"/><path class="cls-1" d="M142,212.28l19.65,11.05L142.08,239A20,20,0,0,0,142,212.28Z" transform="translate(-18.47 -78.85)"/><path class="cls-1" d="M114.21,211.43l15.3-20.81,11.35,20.55A19.91,19.91,0,0,0,114.21,211.43Z" transform="translate(-18.47 -78.85)"/><path class="cls-1" d="M152,199.71l-19.65-11.05L151.89,173A20,20,0,0,0,152,199.71Z" transform="translate(-18.47 -78.85)"/><rect class="cls-1" x="34.88" y="311.81" width="115" height="115" rx="20" transform="translate(-252.78 95.03) rotate(-45.07)"/><g class="cls-3"><rect class="cls-1" x="34.88" y="311.81" width="115" height="115" rx="20" transform="translate(-252.78 95.03) rotate(-45.07)"/></g><rect class="cls-1" x="115.33" y="306.25" width="62" height="16" transform="translate(-197.96 117.06) rotate(-45.07)"/><path class="cls-1" d="M141,281.65l20.87,15.25L141.2,308.07A19.62,19.62,0,0,0,141,281.65Z" transform="translate(-18.47 -78.85)"/><path class="cls-1" d="M152.57,319.32l11.22-19.56,15.61,19.61A20.16,20.16,0,0,0,152.57,319.32Z" transform="translate(-18.47 -78.85)"/><path class="cls-1" d="M151.49,347.08l-20.68-15.47,20.64-11.18A19.92,19.92,0,0,0,151.49,347.08Z" transform="translate(-18.47 -78.85)"/><path class="cls-1" d="M140.09,309.2l-11.22,19.56-15.46-19.68A19.94,19.94,0,0,0,140.09,309.2Z" transform="translate(-18.47 -78.85)"/><rect class="cls-1" x="253.23" y="94.38" width="115" height="115" rx="20" transform="translate(-33.78 188.44) rotate(-45.54)"/><rect class="cls-1" x="144.1" y="203.18" width="115" height="115" rx="20" transform="translate(-143.8 140.45) rotate(-45.07)"/><g class="cls-4"><rect class="cls-1" x="144.1" y="203.18" width="115" height="115" rx="20" transform="translate(-143.8 140.45) rotate(-45.07)"/></g><rect class="cls-1" x="224.56" y="197.63" width="62" height="16" transform="translate(-88.98 162.48) rotate(-45.07)"/><path class="cls-1" d="M250.2,173l20.87,15.25-20.65,11.17A19.62,19.62,0,0,0,250.2,173Z" transform="translate(-18.47 -78.85)"/><path class="cls-1" d="M261.8,210.7,273,191.14l15.61,19.61A20.13,20.13,0,0,0,261.8,210.7Z" transform="translate(-18.47 -78.85)"/><path class="cls-1" d="M260.72,238.46,240,223l20.65-11.18A19.91,19.91,0,0,0,260.72,238.46Z" transform="translate(-18.47 -78.85)"/><path class="cls-1" d="M249.31,200.58,238.1,220.14l-15.46-19.68A19.93,19.93,0,0,0,249.31,200.58Z" transform="translate(-18.47 -78.85)"/><rect class="cls-1" x="362.03" y="203.37" width="115" height="115" rx="20" transform="translate(-79.92 294.79) rotate(-45.07)"/><g class="cls-5"><rect class="cls-1" x="362.03" y="203.37" width="115" height="115" rx="20" transform="translate(-79.92 294.79) rotate(-45.07)"/></g><rect class="cls-1" x="356.48" y="175.91" width="16" height="62" transform="translate(-57.89 239.96) rotate(-45.07)"/><path class="cls-1" d="M331.88,212.27l15.25-20.87,11.17,20.65A19.63,19.63,0,0,0,331.88,212.27Z" transform="translate(-18.47 -78.85)"/><path class="cls-1" d="M369.55,200.67,350,189.46l19.6-15.61A20.14,20.14,0,0,0,369.55,200.67Z" transform="translate(-18.47 -78.85)"/><path class="cls-1" d="M397.31,201.75l-15.48,20.69-11.17-20.65A19.9,19.9,0,0,0,397.31,201.75Z" transform="translate(-18.47 -78.85)"/><path class="cls-1" d="M359.43,213.16,379,224.37l-19.68,15.46A20,20,0,0,0,359.43,213.16Z" transform="translate(-18.47 -78.85)"/></svg>