<svg xmlns="http://www.w3.org/2000/svg" viewBox="0 0 1200 675" width="1200" height="675"><path fill="#0D9488" d="M0 0h1200v675H0z"/><g transform="translate(485.0 313.0) rotate(0.0 341.0 152.0) scale(1.0 1.0)"><svg width="682" height="304" viewBox="0 0 682 304"><g><path fill="#99F6E4" d="M106.56 174.68 79.6 124.6h14.64l13.28 24.24 12.96-24.24h14.64l-26.72 50.08h-1.84Zm-6.32 6v-24.64h14.64v24.64h-14.64Zm34.08 0 24.08-56.08h15.04l23.52 56.08h-15.6l-15.84-41.44-16.16 41.44h-15.04Zm14.4-10.08v-11.04h32.72v11.04h-32.72Zm53.28-46h24.64q10.72 0 16.64 5.16t5.92 14.52q0 9.84-5.92 15.32t-16.64 5.48h-16.4l6.4-6.4v22H202V124.6Zm8.24 28.96h15.68q4.48 0 6.92-2.24 2.44-2.24 2.44-6.64 0-4.24-2.44-6.4t-6.92-2.16h-15.68l6.4-6.4v30.24l-6.4-6.4Zm72.88-29.84q6.56 0 12.04 2.16 5.48 2.16 9.6 6.08 4.12 3.92 6.4 9.16 2.28 5.24 2.28 11.4 0 6.24-2.28 11.56t-6.4 9.28q-4.12 3.96-9.6 6.16-5.48 2.2-12.04 2.2-6.48 0-12-2.2t-9.64-6.16q-4.12-3.96-6.4-9.28-2.28-5.32-2.28-11.56 0-6.16 2.28-11.44 2.28-5.28 6.4-9.16 4.12-3.88 9.64-6.04 5.52-2.16 12-2.16Zm.16 12.24q-3.12 0-5.96 1.24t-4.96 3.52q-2.12 2.28-3.32 5.28-1.2 3-1.2 6.6 0 3.52 1.2 6.6 1.2 3.08 3.36 5.36 2.16 2.28 4.96 3.56 2.8 1.28 5.92 1.28t5.88-1.28q2.76-1.28 4.84-3.56 2.08-2.28 3.24-5.36 1.16-3.08 1.16-6.6 0-3.6-1.16-6.6-1.16-3-3.24-5.28-2.08-2.28-4.84-3.52-2.76-1.24-5.88-1.24Zm37.44 44.72V124.6h15.92l16.24 33.04 16.16-33.04h15.92v56.08H372l-.08-35.92-14.32 30.32h-9.44l-14.4-30.32v35.92h-13.04Zm75.12 0V124.6h14.64v43.76h23.76v12.32h-38.4Z"/></g></svg></g><g transform="translate(351.0 137.0) rotate(0.0 237.5 182.0) scale(1.0019194667679132 1.0014030647335552)"><svg width="474.09" height="363.49" viewBox="0 0 474.09 363.49"><rect x="34" y="95" width="115" height="115" rx="20" transform="translate(-99.9 32.15) rotate(-45.54)" style="fill:#99f6e4"/><g style="clip-path:url(#clip-path)"><rect x="34" y="95" width="115" height="115" rx="20" transform="translate(-99.9 32.15) rotate(-45.54)" style="fill:#99f6e4"/></g><path transform="translate(-121.46 87.8) rotate(-45.54)" style="fill:#99f6e4" d="M139 175h16v62h-16z"/><path d="m179.78 200.55-15.3 20.81-11.35-20.55a19.91 19.91 0 0 0 26.65-.26ZM142 212.28l19.65 11.05L142.08 239a20 20 0 0 0-.08-26.72Zm-27.79-.85 15.3-20.81 11.35 20.55a19.91 19.91 0 0 0-26.65.26ZM152 199.71l-19.65-11.05L151.89 173a20 20 0 0 0 .11 26.71Z" transform="translate(-18.47 -78.85)" style="fill:#99f6e4"/><rect x="34.88" y="311.81" width="115" height="115" rx="20" transform="translate(-252.78 95.03) rotate(-45.07)" style="fill:#99f6e4"/><g style="clip-path:url(#clip-path-2)"><rect x="34.88" y="311.81" width="115" height="115" rx="20" transform="translate(-252.78 95.03) rotate(-45.07)" style="fill:#99f6e4"/></g><path transform="translate(-197.96 117.06) rotate(-45.07)" style="fill:#99f6e4" d="M115.33 306.25h62v16h-62z"/><path d="m141 281.65 20.87 15.25-20.67 11.17a19.62 19.62 0 0 0-.2-26.42Zm11.57 37.67 11.22-19.56 15.61 19.61a20.16 20.16 0 0 0-26.83-.05Zm-1.08 27.76-20.68-15.47 20.64-11.18a19.92 19.92 0 0 0 .04 26.65Zm-11.4-37.88-11.22 19.56-15.46-19.68a19.94 19.94 0 0 0 26.68.12Z" transform="translate(-18.47 -78.85)" style="fill:#99f6e4"/><rect x="253.23" y="94.38" width="115" height="115" rx="20" transform="translate(-33.78 188.44) rotate(-45.54)" style="fill:#99f6e4"/><rect x="144.1" y="203.18" width="115" height="115" rx="20" transform="translate(-143.8 140.45) rotate(-45.07)" style="fill:#99f6e4"/><g style="clip-path:url(#clip-path-3)"><rect x="144.1" y="203.18" width="115" height="115" rx="20" transform="translate(-143.8 140.45) rotate(-45.07)" style="fill:#99f6e4"/></g><path transform="translate(-88.98 162.48) rotate(-45.07)" style="fill:#99f6e4" d="M224.56 197.63h62v16h-62z"/><path d="m250.2 173 20.87 15.25-20.65 11.17a19.62 19.62 0 0 0-.22-26.42Zm11.6 37.7 11.2-19.56 15.61 19.61a20.13 20.13 0 0 0-26.81-.05Zm-1.08 27.76L240 223l20.65-11.18a19.91 19.91 0 0 0 .07 26.64Zm-11.41-37.88-11.21 19.56-15.46-19.68a19.93 19.93 0 0 0 26.67.12Z" transform="translate(-18.47 -78.85)" style="fill:#99f6e4"/><rect x="362.03" y="203.37" width="115" height="115" rx="20" transform="translate(-79.92 294.79) rotate(-45.07)" style="fill:#99f6e4"/><g style="clip-path:url(#clip-path-4)"><rect x="362.03" y="203.37" width="115" height="115" rx="20" transform="translate(-79.92 294.79) rotate(-45.07)" style="fill:#99f6e4"/></g><path transform="translate(-57.89 239.96) rotate(-45.07)" style="fill:#99f6e4" d="M356.48 175.91h16v62h-16z"/><path d="m331.88 212.27 15.25-20.87 11.17 20.65a19.63 19.63 0 0 0-26.42.22Zm37.67-11.6L350 189.46l19.6-15.61a20.14 20.14 0 0 0-.05 26.82Zm27.76 1.08-15.48 20.69-11.17-20.65a19.9 19.9 0 0 0 26.65-.04Zm-37.88 11.41L379 224.37l-19.68 15.46a20 20 0 0 0 .11-26.67Z" transform="translate(-18.47 -78.85)" style="fill:#99f6e4"/></svg></g></svg>